<?xml version="1.0" encoding="UTF-8"?>
<!DOCTYPE svg PUBLIC "-//W3C//DTD SVG 1.1//EN" "http://www.w3.org/Graphics/SVG/1.1/DTD/svg11.dtd">
<svg xmlns="http://www.w3.org/2000/svg" version="1.1" width="250px" height="83px" style="shape-rendering:geometricPrecision; text-rendering:geometricPrecision; image-rendering:optimizeQuality; fill-rule:evenodd; clip-rule:evenodd" xmlns:xlink="http://www.w3.org/1999/xlink">
<g><path style="opacity:1" fill="#0d0802" d="M 33.5,3.5 C 42.6533,2.44254 51.3199,3.94254 59.5,8C 61.6175,9.04914 63.2842,10.5491 64.5,12.5C 64.9731,13.9063 65.9731,14.573 67.5,14.5C 70.2768,16.9505 72.2768,19.9505 73.5,23.5C 73.6596,25.153 74.3263,26.4863 75.5,27.5C 76.4345,28.5676 76.7678,29.901 76.5,31.5C 76.7373,32.791 76.404,33.791 75.5,34.5C 74.6658,30.2282 73.6658,29.8948 72.5,33.5C 75.3299,43.5248 74.6632,43.8582 70.5,34.5C 69.4231,33.2949 68.0898,32.6282 66.5,32.5C 63.3873,32.0646 62.7207,33.0646 64.5,35.5C 63.8924,39.1025 61.8924,41.4359 58.5,42.5C 59.5417,43.7911 60.7083,43.7911 62,42.5C 62.9097,46.6868 61.5764,50.0202 58,52.5C 57.6667,55.5 57.3333,58.5 57,61.5C 54.2161,63.0589 52.3827,65.3922 51.5,68.5C 48.882,70.5312 46.0487,71.1979 43,70.5C 42.0192,67.8802 40.8526,65.3802 39.5,63C 40.4589,60.8801 40.6256,58.7135 40,56.5C 39.2612,54.1112 38.0946,52.1112 36.5,50.5C 35.5416,50.0472 34.7083,49.3805 34,48.5C 31.2809,49.4438 28.4475,49.7771 25.5,49.5C 23.9302,47.1046 22.5968,44.6046 21.5,42C 21.8219,38.8519 22.8219,36.0186 24.5,33.5C 26.5805,32.2727 28.5805,30.7727 30.5,29C 29.6198,27.6439 29.2865,26.1439 29.5,24.5C 30.8333,24.5 32.1667,24.5 33.5,24.5C 33.2627,23.209 33.596,22.209 34.5,21.5C 35.5,21.1667 36.1667,20.5 36.5,19.5C 36.787,15.6808 38.6204,12.6808 42,10.5C 44.4005,12.5638 46.5671,12.5638 48.5,10.5C 49.754,8.7408 49.4206,7.2408 47.5,6C 44.9013,6.19929 42.4013,7.03263 40,8.5C 37.4161,5.97461 35.2494,6.47461 33.5,10C 30.8333,10.6667 28.1667,11.3333 25.5,12C 24.944,12.3826 24.6107,12.8826 24.5,13.5C 23.375,12.6522 23.375,11.6522 24.5,10.5C 26.6089,9.60906 28.6089,8.44239 30.5,7C 29.5,6.33333 28.5,6.33333 27.5,7C 25.6944,9.81768 24.0277,9.98434 22.5,7.5C 24.7916,5.73292 27.4582,4.73292 30.5,4.5C 31.5832,4.53944 32.5832,4.87277 33.5,5.5C 34.463,5.03017 34.463,4.3635 33.5,3.5 Z"/></g>
<g><path style="opacity:0.992" fill="#c9812a" d="M 30.5,4.5 C 31.209,3.59603 32.209,3.26269 33.5,3.5C 34.463,4.3635 34.463,5.03017 33.5,5.5C 32.5832,4.87277 31.5832,4.53944 30.5,4.5 Z"/></g>
<g><path style="opacity:1" fill="#964f26" d="M 24.5,10.5 C 22.8007,10.5271 21.4674,11.1938 20.5,12.5C 20.6309,11.6236 20.2975,10.9569 19.5,10.5C 18.5832,11.1272 17.5832,11.4606 16.5,11.5C 18.1475,9.6736 20.1475,8.34026 22.5,7.5C 24.0277,9.98434 25.6944,9.81768 27.5,7C 28.5,6.33333 29.5,6.33333 30.5,7C 28.6089,8.44239 26.6089,9.60906 24.5,10.5 Z"/></g>
<g><path style="opacity:1" fill="#1d0f08" d="M 20.5,12.5 C 19.5987,13.2905 18.9321,14.2905 18.5,15.5C 17.8423,16.3984 17.1757,17.3984 16.5,18.5C 14.6639,17.9724 12.9972,17.3058 11.5,16.5C 12.1439,13.856 13.8106,12.1894 16.5,11.5C 17.5832,11.4606 18.5832,11.1272 19.5,10.5C 20.2975,10.9569 20.6309,11.6236 20.5,12.5 Z"/></g>
<g><path style="opacity:0.997" fill="#ef7b3d" d="M 24.5,10.5 C 23.375,11.6522 23.375,12.6522 24.5,13.5C 24.5,20.1667 24.5,26.8333 24.5,33.5C 22.8219,36.0186 21.8219,38.8519 21.5,42C 22.5968,44.6046 23.9302,47.1046 25.5,49.5C 25.1555,58.3813 24.1555,67.048 22.5,75.5C 21.1667,74.8333 19.8333,74.1667 18.5,73.5C 18.5,54.1667 18.5,34.8333 18.5,15.5C 18.9321,14.2905 19.5987,13.2905 20.5,12.5C 21.4674,11.1938 22.8007,10.5271 24.5,10.5 Z"/></g>
<g><path style="opacity:1" fill="#e68938" d="M 36.5,19.5 C 35.4157,18.0262 34.0824,17.1929 32.5,17C 31.8333,17.6667 31.1667,18.3333 30.5,19C 32.0664,19.6082 33.3998,20.4415 34.5,21.5C 33.596,22.209 33.2627,23.209 33.5,24.5C 32.1667,24.5 30.8333,24.5 29.5,24.5C 29.2865,26.1439 29.6198,27.6439 30.5,29C 28.5805,30.7727 26.5805,32.2727 24.5,33.5C 24.5,26.8333 24.5,20.1667 24.5,13.5C 24.6107,12.8826 24.944,12.3826 25.5,12C 28.1667,11.3333 30.8333,10.6667 33.5,10C 35.2494,6.47461 37.4161,5.97461 40,8.5C 42.4013,7.03263 44.9013,6.19929 47.5,6C 49.4206,7.2408 49.754,8.7408 48.5,10.5C 46.5671,12.5638 44.4005,12.5638 42,10.5C 38.6204,12.6808 36.787,15.6808 36.5,19.5 Z"/></g>
<g><path style="opacity:0.004" fill="#9a7e02" d="M 64.5,12.5 C 66.0269,12.427 67.0269,13.0937 67.5,14.5C 65.9731,14.573 64.9731,13.9063 64.5,12.5 Z"/></g>
<g><path style="opacity:0.994" fill="#ea6c3b" d="M 18.5,15.5 C 18.5,34.8333 18.5,54.1667 18.5,73.5C 14.4784,71.4784 11.4784,68.4784 9.5,64.5C 10.9707,61.2567 11.9707,57.7567 12.5,54C 12.0217,52.6974 11.355,51.5307 10.5,50.5C 11.6588,40.008 11.8255,29.3414 11,18.5C 9.9609,19.7101 8.79423,20.7101 7.5,21.5C 8.13554,19.2054 9.46888,17.5387 11.5,16.5C 12.9972,17.3058 14.6639,17.9724 16.5,18.5C 17.1757,17.3984 17.8423,16.3984 18.5,15.5 Z"/></g>
<g><path style="opacity:1" fill="#d79129" d="M 41.5,13.5 C 44.499,16.6678 43.8324,18.1678 39.5,18C 41.1066,16.951 41.7733,15.451 41.5,13.5 Z"/></g>
<g><path style="opacity:0.911" fill="#d88a30" d="M 129.5,24.5 C 129.684,27.3213 128.351,28.9879 125.5,29.5C 124.833,28.1667 124.167,26.8333 123.5,25.5C 121.777,28.9398 121.11,32.6065 121.5,36.5C 121.209,37.6491 120.376,38.3158 119,38.5C 117.93,38.472 117.097,38.1386 116.5,37.5C 116.5,33.1667 116.5,28.8333 116.5,24.5C 114.5,24.5 112.5,24.5 110.5,24.5C 110.5,28.8333 110.5,33.1667 110.5,37.5C 108.735,38.4614 106.735,38.7947 104.5,38.5C 105.441,33.9296 105.774,29.263 105.5,24.5C 101.5,24.1667 101.5,23.8333 105.5,23.5C 106.097,17.2785 109.43,15.2785 115.5,17.5C 116.429,18.6888 116.762,20.0222 116.5,21.5C 114.019,21.6766 112.186,20.6766 111,18.5C 110.506,20.1341 110.34,21.8008 110.5,23.5C 117.068,23.6814 123.401,24.0148 129.5,24.5 Z"/></g>
<g><path style="opacity:0.881" fill="#d98a30" d="M 133.5,16.5 C 136.084,17.0483 137.084,18.715 136.5,21.5C 131.967,21.4204 130.967,19.7538 133.5,16.5 Z"/></g>
<g><path style="opacity:0.87" fill="#f49b36" d="M 198.5,37.5 C 196.833,38.8333 195.167,38.8333 193.5,37.5C 194.101,30.7113 193.434,24.2113 191.5,18C 193.81,17.5034 196.143,17.3367 198.5,17.5C 198.5,24.1667 198.5,30.8333 198.5,37.5 Z"/></g>
<g><path style="opacity:0.942" fill="#df8e32" d="M 100.5,37.5 C 98.3166,38.8434 96.3166,38.51 94.5,36.5C 94.1667,35.1667 93.8333,33.8333 93.5,32.5C 93.1667,31.8333 92.8333,31.1667 92.5,30.5C 91.8333,28.1667 91.1667,25.8333 90.5,23.5C 90.1667,22.8333 89.8333,22.1667 89.5,21.5C 90.0483,18.9162 91.715,17.9162 94.5,18.5C 96.2126,24.9249 98.2126,31.2583 100.5,37.5 Z"/></g>
<g><path style="opacity:1" fill="#4b2f14" d="M 36.5,19.5 C 36.1667,20.5 35.5,21.1667 34.5,21.5C 33.3998,20.4415 32.0664,19.6082 30.5,19C 31.1667,18.3333 31.8333,17.6667 32.5,17C 34.0824,17.1929 35.4157,18.0262 36.5,19.5 Z"/></g>
<g><path style="opacity:0.938" fill="#c47d2b" d="M 173.5,19.5 C 175.473,18.8373 177.639,18.5039 180,18.5C 188.983,17.5036 191.983,21.1703 189,29.5C 186.772,31.1134 184.272,31.78 181.5,31.5C 181.5,33.8333 181.5,36.1667 181.5,38.5C 181.11,39.7945 178.443,39.9612 173.5,39C 174.783,35.9364 175.45,32.6031 175.5,29C 175.485,25.4242 174.818,22.2575 173.5,19.5 Z M 181.5,19.5 C 183.876,20.512 184.876,22.3454 184.5,25C 184.742,27.3482 183.908,29.1815 182,30.5C 181.501,26.8484 181.335,23.1817 181.5,19.5 Z"/></g>
<g><path style="opacity:1" fill="#e65539" d="M 10.5,50.5 C 9.49227,48.6614 7.99227,47.3281 6,46.5C 4.51184,42.5211 3.34517,38.5211 2.5,34.5C 2.33982,32.8008 2.50649,31.1341 3,29.5C 3.85959,26.3672 5.35959,23.7005 7.5,21.5C 8.79423,20.7101 9.9609,19.7101 11,18.5C 11.8255,29.3414 11.6588,40.008 10.5,50.5 Z"/></g>
<g><path style="opacity:1" fill="#9e7c07" d="M 54.5,22.5 C 55.1894,21.2264 56.0228,21.2264 57,22.5C 57.9819,23.7589 58.3152,25.0922 58,26.5C 57.0513,24.9069 55.8846,23.5736 54.5,22.5 Z"/></g>
<g><path style="opacity:1" fill="#bc8a17" d="M 47.5,22.5 C 55.297,23.949 55.297,24.949 47.5,25.5C 47.5,24.5 47.5,23.5 47.5,22.5 Z"/></g>
<g><path style="opacity:0.961" fill="#d2862f" d="M 129.5,24.5 C 131.948,23.5269 134.615,23.1936 137.5,23.5C 137.5,28.1667 137.5,32.8333 137.5,37.5C 135.735,38.4614 133.735,38.7947 131.5,38.5C 132.103,33.3814 131.436,28.7147 129.5,24.5 Z"/></g>
<g><path style="opacity:0.94" fill="#cb822d" d="M 143.5,23.5 C 146.518,23.3354 149.518,23.502 152.5,24C 155.268,27.5354 154.268,29.3688 149.5,29.5C 149.785,27.712 149.452,26.0453 148.5,24.5C 147.914,24.7093 147.414,25.0426 147,25.5C 146.233,29.5575 146.4,33.5575 147.5,37.5C 150.242,38.4995 152.242,37.4995 153.5,34.5C 154.41,38.2624 152.744,39.929 148.5,39.5C 143.036,39.4539 140.369,36.6206 140.5,31C 140.828,28.1712 141.828,25.6712 143.5,23.5 Z"/></g>
<g><path style="opacity:0.965" fill="#d4872f" d="M 216.5,38.5 C 214.833,38.5 213.167,38.5 211.5,38.5C 209.262,39.5366 206.929,39.7033 204.5,39C 201.833,36.3333 201.833,33.6667 204.5,31C 206.81,30.5034 209.143,30.3367 211.5,30.5C 211.753,28.1727 211.086,26.1727 209.5,24.5C 208.571,25.6888 208.238,27.0222 208.5,28.5C 204.324,29.1693 202.991,27.6693 204.5,24C 207.833,23.3333 211.167,23.3333 214.5,24C 215,24.5 215.5,25 216,25.5C 216.499,29.8206 216.666,34.1539 216.5,38.5 Z M 208.5,31.5 C 209.5,31.5 210.5,31.5 211.5,31.5C 211.435,33.6957 210.768,35.6957 209.5,37.5C 208.28,37.1131 207.613,36.2798 207.5,35C 207.989,33.8615 208.322,32.6948 208.5,31.5 Z"/></g>
<g><path style="opacity:0.942" fill="#e18f32" d="M 235.5,37.5 C 234.081,38.4511 232.415,38.7845 230.5,38.5C 230.666,34.4862 230.499,30.4862 230,26.5C 229,25.1667 228,25.1667 227,26.5C 226.501,30.1516 226.335,33.8183 226.5,37.5C 224.735,38.4614 222.735,38.7947 220.5,38.5C 221.602,34.2529 221.768,29.9196 221,25.5C 220.25,24.8742 219.416,24.3742 218.5,24C 223.5,23.3333 228.5,23.3333 233.5,24C 234,24.5 234.5,25 235,25.5C 235.499,29.4862 235.666,33.4862 235.5,37.5 Z"/></g>
<g><path style="opacity:0.725" fill="#7f7811" d="M 73.5,23.5 C 75.1042,24.287 75.7709,25.6203 75.5,27.5C 74.3263,26.4863 73.6596,25.153 73.5,23.5 Z"/></g>
<g><path style="opacity:1" fill="#dd9728" d="M 35.5,24.5 C 37.0418,25.3007 38.7085,25.634 40.5,25.5C 40.3433,26.8734 40.51,28.2068 41,29.5C 41.6924,28.9747 42.1924,28.3081 42.5,27.5C 41.6744,26.549 41.5078,25.549 42,24.5C 43.3848,25.5505 44.3848,26.8839 45,28.5C 45.3076,27.6919 45.8076,27.0253 46.5,26.5C 48.1789,28.1045 50.1789,28.7711 52.5,28.5C 52.5,29.5 52.5,30.5 52.5,31.5C 49.4212,31.2601 46.4212,31.5934 43.5,32.5C 40.6755,29.8872 37.3422,28.2206 33.5,27.5C 34.1925,26.4822 34.8592,25.4822 35.5,24.5 Z"/></g>
<g><path style="opacity:0.152" fill="#84541d" d="M 89.5,21.5 C 89.8333,22.1667 90.1667,22.8333 90.5,23.5C 89.5195,25.396 88.5195,27.396 87.5,29.5C 89.0453,30.4519 90.712,30.7852 92.5,30.5C 92.8333,31.1667 93.1667,31.8333 93.5,32.5C 88.9541,31.6346 85.9541,33.3012 84.5,37.5C 85.7287,38.2811 87.062,38.7811 88.5,39C 85.8333,39.6667 83.1667,39.6667 80.5,39C 81.4162,38.6258 82.2496,38.1258 83,37.5C 84.9435,31.9643 87.1101,26.631 89.5,21.5 Z"/></g>
<g><path style="opacity:0.856" fill="#ca812d" d="M 158.5,23.5 C 162.106,23.2108 165.606,23.5442 169,24.5C 170.013,29.3367 170.846,34.17 171.5,39C 166.581,39.8015 161.748,39.6349 157,38.5C 155.175,31.8315 157.675,29.1648 164.5,30.5C 164.799,28.396 164.466,26.396 163.5,24.5C 162.571,25.6888 162.238,27.0222 162.5,28.5C 160.833,28.5 159.167,28.5 157.5,28.5C 157.366,26.7085 157.699,25.0418 158.5,23.5 Z M 162.5,31.5 C 163.649,31.7911 164.316,32.6244 164.5,34C 164.612,35.6624 163.946,36.8291 162.5,37.5C 161.306,35.4844 161.306,33.4844 162.5,31.5 Z"/></g>
<g><path style="opacity:1" fill="#8f7106" d="M 58.5,30.5 C 61.0014,30.8256 62.1681,32.1589 62,34.5C 60.3732,33.4677 59.2066,32.1344 58.5,30.5 Z"/></g>
<g><path style="opacity:0.996" fill="#f6c30e" d="M 66.5,32.5 C 66.1716,44.6783 66.5049,56.6783 67.5,68.5C 63.293,72.7723 58.293,75.7723 52.5,77.5C 51.5233,74.7131 51.19,71.7131 51.5,68.5C 52.3827,65.3922 54.2161,63.0589 57,61.5C 57.3333,58.5 57.6667,55.5 58,52.5C 61.5764,50.0202 62.9097,46.6868 62,42.5C 60.7083,43.7911 59.5417,43.7911 58.5,42.5C 61.8924,41.4359 63.8924,39.1025 64.5,35.5C 62.7207,33.0646 63.3873,32.0646 66.5,32.5 Z"/></g>
<g><path style="opacity:1" fill="#1f0d08" d="M 2.5,34.5 C 3.34517,38.5211 4.51184,42.5211 6,46.5C 7.99227,47.3281 9.49227,48.6614 10.5,50.5C 11.355,51.5307 12.0217,52.6974 12.5,54C 11.9707,57.7567 10.9707,61.2567 9.5,64.5C 2.43745,55.5842 0.104114,45.5842 2.5,34.5 Z"/></g>
<g><path style="opacity:1" fill="#b88f0a" d="M 58.5,42.5 C 55.6797,40.5216 54.1797,37.855 54,34.5C 55.7864,37.0799 57.2864,39.7465 58.5,42.5 Z"/></g>
<g><path style="opacity:0.418" fill="#704718" d="M 193.5,37.5 C 195.167,38.8333 196.833,38.8333 198.5,37.5C 202.021,39.0967 201.355,39.7633 196.5,39.5C 194.833,39.3333 193.167,39.1667 191.5,39C 192.044,38.2828 192.711,37.7828 193.5,37.5 Z"/></g>
<g><path style="opacity:0.431" fill="#724819" d="M 94.5,36.5 C 96.3166,38.51 98.3166,38.8434 100.5,37.5C 101.708,38.2341 103.041,38.5674 104.5,38.5C 106.735,38.7947 108.735,38.4614 110.5,37.5C 111.473,37.9867 112.473,38.4867 113.5,39C 106.5,39.6667 99.5,39.6667 92.5,39C 93.756,38.5831 94.4226,37.7498 94.5,36.5 Z"/></g>
<g><path style="opacity:0.42" fill="#784c1a" d="M 121.5,36.5 C 122.309,37.4687 123.309,38.3021 124.5,39C 121.167,39.6667 117.833,39.6667 114.5,39C 115.044,38.2828 115.711,37.7828 116.5,37.5C 117.097,38.1386 117.93,38.472 119,38.5C 120.376,38.3158 121.209,37.6491 121.5,36.5 Z"/></g>
<g><path style="opacity:0.438" fill="#704718" d="M 137.5,37.5 C 138.289,37.7828 138.956,38.2828 139.5,39C 135.357,39.8431 132.69,39.6764 131.5,38.5C 133.735,38.7947 135.735,38.4614 137.5,37.5 Z"/></g>
<g><path style="opacity:0.447" fill="#704718" d="M 226.5,37.5 C 227.289,37.7828 227.956,38.2828 228.5,39C 222.651,39.8184 216.985,39.6517 211.5,38.5C 213.167,38.5 214.833,38.5 216.5,38.5C 217.833,38.5 219.167,38.5 220.5,38.5C 222.735,38.7947 224.735,38.4614 226.5,37.5 Z"/></g>
<g><path style="opacity:0.469" fill="#6c4417" d="M 235.5,37.5 C 236.289,37.7828 236.956,38.2828 237.5,39C 234.961,39.7958 232.628,39.6291 230.5,38.5C 232.415,38.7845 234.081,38.4511 235.5,37.5 Z"/></g>
<g><path style="opacity:0.413" fill="#734919" d="M 167.5,42.5 C 165.585,42.2155 163.919,42.5489 162.5,43.5C 161.711,43.2172 161.044,42.7172 160.5,42C 163.039,41.2042 165.372,41.3709 167.5,42.5 Z"/></g>
<g><path style="opacity:0.869" fill="#c47d2c" d="M 202.5,41.5 C 206.138,40.7366 207.638,42.0699 207,45.5C 203.331,47.0093 201.831,45.6759 202.5,41.5 Z"/></g>
<g><path style="opacity:0.169" fill="#88601d" d="M 76.5,31.5 C 78.217,34.8448 78.8836,38.5115 78.5,42.5C 83.8333,42.5 89.1667,42.5 94.5,42.5C 94.6633,44.8568 94.4966,47.1902 94,49.5C 93.2512,45.3971 90.7512,43.7304 86.5,44.5C 84.5,43.1667 82.5,43.1667 80.5,44.5C 79.0221,45.4475 78.0221,46.7809 77.5,48.5C 78.038,43.5329 77.3713,38.8662 75.5,34.5C 76.404,33.791 76.7373,32.791 76.5,31.5 Z"/></g>
<g><path style="opacity:0.999" fill="#f6d721" d="M 75.5,34.5 C 77.3713,38.8662 78.038,43.5329 77.5,48.5C 76.2662,56.3011 72.9328,62.9678 67.5,68.5C 66.5049,56.6783 66.1716,44.6783 66.5,32.5C 68.0898,32.6282 69.4231,33.2949 70.5,34.5C 74.6632,43.8582 75.3299,43.5248 72.5,33.5C 73.6658,29.8948 74.6658,30.2282 75.5,34.5 Z"/></g>
<g><path style="opacity:0.938" fill="#d0842e" d="M 86.5,44.5 C 86.5,47.1667 86.5,49.8333 86.5,52.5C 94.5,52.8333 94.5,53.1667 86.5,53.5C 86.5,56.5 86.5,59.5 86.5,62.5C 84.5,63.8333 82.5,63.8333 80.5,62.5C 80.5,56.5 80.5,50.5 80.5,44.5C 82.5,43.1667 84.5,43.1667 86.5,44.5 Z"/></g>
<g><path style="opacity:0.856" fill="#e99434" d="M 195.5,47.5 C 195.5,48.1667 195.5,48.8333 195.5,49.5C 195.231,53.9315 195.564,58.2648 196.5,62.5C 195.432,63.4345 194.099,63.7678 192.5,63.5C 191.883,63.3893 191.383,63.056 191,62.5C 191.031,57.6029 190.197,52.9363 188.5,48.5C 191.688,48.1439 193.855,46.4772 195,43.5C 195.49,44.7932 195.657,46.1266 195.5,47.5 Z"/></g>
<g><path style="opacity:0.163" fill="#6f4618" d="M 120.5,48.5 C 118.585,48.2155 116.919,48.5489 115.5,49.5C 114.624,49.6309 113.957,49.2975 113.5,48.5C 115.973,47.2031 118.307,47.2031 120.5,48.5 Z"/></g>
<g><path style="opacity:0.129" fill="#7a4e1a" d="M 129.5,48.5 C 127.265,48.2053 125.265,48.5386 123.5,49.5C 122.957,49.44 122.624,49.1067 122.5,48.5C 124.973,47.2031 127.307,47.2031 129.5,48.5 Z"/></g>
<g><path style="opacity:0.348" fill="#7e501b" d="M 146.5,48.5 C 144.901,48.2322 143.568,48.5655 142.5,49.5C 141.833,49.8333 141.167,50.1667 140.5,50.5C 139.866,49.0532 138.699,48.3866 137,48.5C 135.93,48.528 135.097,48.8614 134.5,49.5C 133.624,49.6309 132.957,49.2975 132.5,48.5C 133.833,48.1667 135.167,47.8333 136.5,47.5C 139.885,47.8084 143.218,48.1417 146.5,48.5 Z"/></g>
<g><path style="opacity:0.157" fill="#6e4518" d="M 195.5,47.5 C 200.833,48.1667 200.833,48.8333 195.5,49.5C 195.5,48.8333 195.5,48.1667 195.5,47.5 Z"/></g>
<g><path style="opacity:0.145" fill="#7a4e1a" d="M 207.5,48.5 C 205.265,48.2053 203.265,48.5386 201.5,49.5C 200.957,49.44 200.624,49.1067 200.5,48.5C 202.973,47.2031 205.307,47.2031 207.5,48.5 Z"/></g>
<g><path style="opacity:0.256" fill="#6e4518" d="M 215.5,48.5 C 217.833,47.1667 220.167,47.1667 222.5,48.5C 221.508,48.3284 220.842,48.6618 220.5,49.5C 219.5,48.1667 218.5,48.1667 217.5,49.5C 217.158,48.6618 216.492,48.3284 215.5,48.5 Z"/></g>
<g><path style="opacity:0.142" fill="#7a4e1a" d="M 235.5,48.5 C 233.265,48.2053 231.265,48.5386 229.5,49.5C 228.957,49.44 228.624,49.1067 228.5,48.5C 230.973,47.2031 233.307,47.2031 235.5,48.5 Z"/></g>
<g><path style="opacity:0.951" fill="#c77f2c" d="M 100.5,47.5 C 107.577,46.1919 111.577,49.0252 112.5,56C 112.331,61.5021 109.498,64.3354 104,64.5C 97.2714,62.718 94.9381,58.3846 97,51.5C 97.6897,49.6498 98.8564,48.3164 100.5,47.5 Z M 103.5,48.5 C 106.012,50.237 107.012,52.737 106.5,56C 106.333,57.8333 106.167,59.6667 106,61.5C 104.989,62.3366 103.822,62.67 102.5,62.5C 100.953,57.6734 101.286,53.0067 103.5,48.5 Z"/></g>
<g><path style="opacity:0.955" fill="#df8e32" d="M 120.5,48.5 C 120.334,52.5138 120.501,56.5138 121,60.5C 121.605,62.4812 122.605,62.8146 124,61.5C 124.812,57.3112 124.645,53.3112 123.5,49.5C 125.265,48.5386 127.265,48.2053 129.5,48.5C 129.334,52.8461 129.501,57.1794 130,61.5C 130.5,62 131,62.5 131.5,63C 127.981,63.3773 124.481,63.8773 121,64.5C 118.695,64.5159 117.028,63.5159 116,61.5C 115.501,57.5138 115.334,53.5138 115.5,49.5C 116.919,48.5489 118.585,48.2155 120.5,48.5 Z"/></g>
<g><path style="opacity:0.976" fill="#d3862f" d="M 140.5,50.5 C 139.945,54.9971 140.611,59.1638 142.5,63C 139.167,63.6667 135.833,63.6667 132.5,63C 134.399,58.8222 135.065,54.3222 134.5,49.5C 135.097,48.8614 135.93,48.528 137,48.5C 138.699,48.3866 139.866,49.0532 140.5,50.5 Z"/></g>
<g><path style="opacity:0.989" fill="#cf842e" d="M 142.5,49.5 C 143.568,48.5655 144.901,48.2322 146.5,48.5C 147.497,48.4701 148.164,48.9701 148.5,50C 148.783,54.6221 149.783,58.9554 151.5,63C 148.854,63.4974 146.187,63.6641 143.5,63.5C 143.819,58.6367 143.486,53.97 142.5,49.5 Z"/></g>
<g><path style="opacity:0.955" fill="#cf842e" d="M 167.5,42.5 C 167.334,48.8421 167.5,55.1754 168,61.5C 168.75,62.1258 169.584,62.6258 170.5,63C 166.471,63.3028 162.471,63.8028 158.5,64.5C 154.338,63.1022 152.338,60.1022 152.5,55.5C 152.629,48.8627 155.796,46.5294 162,48.5C 162.494,46.8659 162.66,45.1992 162.5,43.5C 163.919,42.5489 165.585,42.2155 167.5,42.5 Z M 159.5,49.5 C 160.496,49.4142 161.329,49.7476 162,50.5C 162.167,52.1667 162.333,53.8333 162.5,55.5C 162.679,58.1312 162.013,60.4645 160.5,62.5C 159.914,62.2907 159.414,61.9574 159,61.5C 158.238,57.4126 158.404,53.4126 159.5,49.5 Z"/></g>
<g><path style="opacity:0.95" fill="#cd822d" d="M 175.5,47.5 C 178.807,47.0632 181.807,47.7298 184.5,49.5C 184.816,54.2664 185.816,58.7664 187.5,63C 183.805,63.3179 180.138,63.8179 176.5,64.5C 172.164,63.4985 170.664,60.8319 172,56.5C 174.621,55.0085 177.455,54.3418 180.5,54.5C 180.819,52.2495 180.319,50.2495 179,48.5C 177.731,49.9047 177.231,51.5714 177.5,53.5C 171.887,52.7913 171.22,50.7913 175.5,47.5 Z M 179.5,55.5 C 180.794,58.0191 180.294,60.3525 178,62.5C 176.074,59.6747 176.574,57.3413 179.5,55.5 Z"/></g>
<g><path style="opacity:0.875" fill="#f29a36" d="M 201.5,49.5 C 203.265,48.5386 205.265,48.2053 207.5,48.5C 206.926,53.6483 207.593,58.4816 209.5,63C 206.854,63.4974 204.187,63.6641 201.5,63.5C 201.5,63.1667 201.5,62.8333 201.5,62.5C 202.833,58.1667 202.833,53.8333 201.5,49.5 Z"/></g>
<g><path style="opacity:0.879" fill="#dc8c31" d="M 215.5,48.5 C 216.492,48.3284 217.158,48.6618 217.5,49.5C 216.489,53.1122 216.322,56.7789 217,60.5C 218.333,63.1667 219.667,63.1667 221,60.5C 221.755,56.7446 221.589,53.0779 220.5,49.5C 220.842,48.6618 221.508,48.3284 222.5,48.5C 224.411,48.5743 225.578,49.5743 226,51.5C 226.956,55.572 226.456,59.4054 224.5,63C 213.996,66.1557 209.829,62.3224 212,51.5C 212.422,49.5743 213.589,48.5743 215.5,48.5 Z M 220.5,49.5 C 221.589,53.0779 221.755,56.7446 221,60.5C 219.667,63.1667 218.333,63.1667 217,60.5C 216.322,56.7789 216.489,53.1122 217.5,49.5C 218.5,48.1667 219.5,48.1667 220.5,49.5 Z"/></g>
<g><path style="opacity:0.876" fill="#e69333" d="M 229.5,49.5 C 231.265,48.5386 233.265,48.2053 235.5,48.5C 238.582,46.9312 241.415,47.2645 244,49.5C 243.928,54.3082 244.761,58.8082 246.5,63C 244.19,63.4966 241.857,63.6633 239.5,63.5C 239.666,59.1539 239.499,54.8206 239,50.5C 237.605,49.1854 236.605,49.5188 236,51.5C 235.501,55.1516 235.335,58.8183 235.5,62.5C 235.621,63.843 233.288,64.0097 228.5,63C 229.752,60.9587 230.419,58.6254 230.5,56C 230.496,53.6392 230.163,51.4726 229.5,49.5 Z"/></g>
<g><path style="opacity:0.997" fill="#f2913b" d="M 36.5,50.5 C 36.5,60.1667 36.5,69.8333 36.5,79.5C 31.3414,79.5544 26.6748,78.221 22.5,75.5C 24.1555,67.048 25.1555,58.3813 25.5,49.5C 28.4475,49.7771 31.2809,49.4438 34,48.5C 34.7083,49.3805 35.5416,50.0472 36.5,50.5 Z"/></g>
<g><path style="opacity:0.994" fill="#f0a12f" d="M 36.5,50.5 C 38.0946,52.1112 39.2612,54.1112 40,56.5C 40.6256,58.7135 40.4589,60.8801 39.5,63C 40.8526,65.3802 42.0192,67.8802 43,70.5C 46.0487,71.1979 48.882,70.5312 51.5,68.5C 51.19,71.7131 51.5233,74.7131 52.5,77.5C 51.7375,78.2679 50.7375,78.7679 49.5,79C 45.1794,79.499 40.8461,79.6657 36.5,79.5C 36.5,69.8333 36.5,60.1667 36.5,50.5 Z"/></g>
<g><path style="opacity:1" fill="#292108" d="M 61.5,57.5 C 62.5735,58.2506 62.7401,59.2506 62,60.5C 60.8333,62.1667 59.6667,63.8333 58.5,65.5C 58.1667,65.1667 57.8333,64.8333 57.5,64.5C 58.5336,61.954 59.867,59.6206 61.5,57.5 Z"/></g>
<g><path style="opacity:0.246" fill="#764b1a" d="M 196.5,62.5 C 198.167,62.5 199.833,62.5 201.5,62.5C 201.5,62.8333 201.5,63.1667 201.5,63.5C 198.327,64.3683 195.327,64.3683 192.5,63.5C 194.099,63.7678 195.432,63.4345 196.5,62.5 Z"/></g>
</svg>
